<?xml version="1.0" standalone="no"?>
<svg xmlns="http://www.w3.org/2000/svg" version="1.1" width="203" height="203">
	<!-- Created with https://api.qrserver.com (QR Code API, see goQR.me/api for information) -->
	<title>QR Code</title>
	<desc>https://github.com/ledukilian/RetEx_AI_Tools</desc>
	<rect style="fill:rgb(255, 255, 255);fill-opacity:1" x="0" y="0" width="203" height="203" />
	<g id="elements">
		<path style="fill:rgb(0, 0, 0)" d="M 0,0 l 7,0 0,7 -7,0 z M 7,0 l 7,0 0,7 -7,0 z M 14,0 l 7,0 0,7 -7,0 z M 21,0 l 7,0 0,7 -7,0 z M 28,0 l 7,0 0,7 -7,0 z M 35,0 l 7,0 0,7 -7,0 z M 42,0 l 7,0 0,7 -7,0 z M 70,0 l 7,0 0,7 -7,0 z M 84,0 l 7,0 0,7 -7,0 z M 105,0 l 7,0 0,7 -7,0 z M 112,0 l 7,0 0,7 -7,0 z M 133,0 l 7,0 0,7 -7,0 z M 140,0 l 7,0 0,7 -7,0 z M 154,0 l 7,0 0,7 -7,0 z M 161,0 l 7,0 0,7 -7,0 z M 168,0 l 7,0 0,7 -7,0 z M 175,0 l 7,0 0,7 -7,0 z M 182,0 l 7,0 0,7 -7,0 z M 189,0 l 7,0 0,7 -7,0 z M 196,0 l 7,0 0,7 -7,0 z M 0,7 l 7,0 0,7 -7,0 z M 42,7 l 7,0 0,7 -7,0 z M 56,7 l 7,0 0,7 -7,0 z M 70,7 l 7,0 0,7 -7,0 z M 105,7 l 7,0 0,7 -7,0 z M 112,7 l 7,0 0,7 -7,0 z M 154,7 l 7,0 0,7 -7,0 z M 196,7 l 7,0 0,7 -7,0 z M 0,14 l 7,0 0,7 -7,0 z M 14,14 l 7,0 0,7 -7,0 z M 21,14 l 7,0 0,7 -7,0 z M 28,14 l 7,0 0,7 -7,0 z M 42,14 l 7,0 0,7 -7,0 z M 84,14 l 7,0 0,7 -7,0 z M 98,14 l 7,0 0,7 -7,0 z M 112,14 l 7,0 0,7 -7,0 z M 140,14 l 7,0 0,7 -7,0 z M 154,14 l 7,0 0,7 -7,0 z M 168,14 l 7,0 0,7 -7,0 z M 175,14 l 7,0 0,7 -7,0 z M 182,14 l 7,0 0,7 -7,0 z M 196,14 l 7,0 0,7 -7,0 z M 0,21 l 7,0 0,7 -7,0 z M 14,21 l 7,0 0,7 -7,0 z M 21,21 l 7,0 0,7 -7,0 z M 28,21 l 7,0 0,7 -7,0 z M 42,21 l 7,0 0,7 -7,0 z M 56,21 l 7,0 0,7 -7,0 z M 63,21 l 7,0 0,7 -7,0 z M 70,21 l 7,0 0,7 -7,0 z M 84,21 l 7,0 0,7 -7,0 z M 98,21 l 7,0 0,7 -7,0 z M 112,21 l 7,0 0,7 -7,0 z M 119,21 l 7,0 0,7 -7,0 z M 154,21 l 7,0 0,7 -7,0 z M 168,21 l 7,0 0,7 -7,0 z M 175,21 l 7,0 0,7 -7,0 z M 182,21 l 7,0 0,7 -7,0 z M 196,21 l 7,0 0,7 -7,0 z M 0,28 l 7,0 0,7 -7,0 z M 14,28 l 7,0 0,7 -7,0 z M 21,28 l 7,0 0,7 -7,0 z M 28,28 l 7,0 0,7 -7,0 z M 42,28 l 7,0 0,7 -7,0 z M 63,28 l 7,0 0,7 -7,0 z M 91,28 l 7,0 0,7 -7,0 z M 105,28 l 7,0 0,7 -7,0 z M 112,28 l 7,0 0,7 -7,0 z M 119,28 l 7,0 0,7 -7,0 z M 126,28 l 7,0 0,7 -7,0 z M 133,28 l 7,0 0,7 -7,0 z M 140,28 l 7,0 0,7 -7,0 z M 154,28 l 7,0 0,7 -7,0 z M 168,28 l 7,0 0,7 -7,0 z M 175,28 l 7,0 0,7 -7,0 z M 182,28 l 7,0 0,7 -7,0 z M 196,28 l 7,0 0,7 -7,0 z M 0,35 l 7,0 0,7 -7,0 z M 42,35 l 7,0 0,7 -7,0 z M 56,35 l 7,0 0,7 -7,0 z M 63,35 l 7,0 0,7 -7,0 z M 77,35 l 7,0 0,7 -7,0 z M 84,35 l 7,0 0,7 -7,0 z M 105,35 l 7,0 0,7 -7,0 z M 119,35 l 7,0 0,7 -7,0 z M 126,35 l 7,0 0,7 -7,0 z M 140,35 l 7,0 0,7 -7,0 z M 154,35 l 7,0 0,7 -7,0 z M 196,35 l 7,0 0,7 -7,0 z M 0,42 l 7,0 0,7 -7,0 z M 7,42 l 7,0 0,7 -7,0 z M 14,42 l 7,0 0,7 -7,0 z M 21,42 l 7,0 0,7 -7,0 z M 28,42 l 7,0 0,7 -7,0 z M 35,42 l 7,0 0,7 -7,0 z M 42,42 l 7,0 0,7 -7,0 z M 56,42 l 7,0 0,7 -7,0 z M 70,42 l 7,0 0,7 -7,0 z M 84,42 l 7,0 0,7 -7,0 z M 98,42 l 7,0 0,7 -7,0 z M 112,42 l 7,0 0,7 -7,0 z M 126,42 l 7,0 0,7 -7,0 z M 140,42 l 7,0 0,7 -7,0 z M 154,42 l 7,0 0,7 -7,0 z M 161,42 l 7,0 0,7 -7,0 z M 168,42 l 7,0 0,7 -7,0 z M 175,42 l 7,0 0,7 -7,0 z M 182,42 l 7,0 0,7 -7,0 z M 189,42 l 7,0 0,7 -7,0 z M 196,42 l 7,0 0,7 -7,0 z M 63,49 l 7,0 0,7 -7,0 z M 70,49 l 7,0 0,7 -7,0 z M 77,49 l 7,0 0,7 -7,0 z M 98,49 l 7,0 0,7 -7,0 z M 105,49 l 7,0 0,7 -7,0 z M 140,49 l 7,0 0,7 -7,0 z M 0,56 l 7,0 0,7 -7,0 z M 7,56 l 7,0 0,7 -7,0 z M 14,56 l 7,0 0,7 -7,0 z M 21,56 l 7,0 0,7 -7,0 z M 28,56 l 7,0 0,7 -7,0 z M 42,56 l 7,0 0,7 -7,0 z M 49,56 l 7,0 0,7 -7,0 z M 56,56 l 7,0 0,7 -7,0 z M 63,56 l 7,0 0,7 -7,0 z M 77,56 l 7,0 0,7 -7,0 z M 98,56 l 7,0 0,7 -7,0 z M 112,56 l 7,0 0,7 -7,0 z M 119,56 l 7,0 0,7 -7,0 z M 147,56 l 7,0 0,7 -7,0 z M 161,56 l 7,0 0,7 -7,0 z M 175,56 l 7,0 0,7 -7,0 z M 189,56 l 7,0 0,7 -7,0 z M 0,63 l 7,0 0,7 -7,0 z M 7,63 l 7,0 0,7 -7,0 z M 21,63 l 7,0 0,7 -7,0 z M 28,63 l 7,0 0,7 -7,0 z M 35,63 l 7,0 0,7 -7,0 z M 56,63 l 7,0 0,7 -7,0 z M 70,63 l 7,0 0,7 -7,0 z M 84,63 l 7,0 0,7 -7,0 z M 91,63 l 7,0 0,7 -7,0 z M 98,63 l 7,0 0,7 -7,0 z M 112,63 l 7,0 0,7 -7,0 z M 119,63 l 7,0 0,7 -7,0 z M 126,63 l 7,0 0,7 -7,0 z M 133,63 l 7,0 0,7 -7,0 z M 140,63 l 7,0 0,7 -7,0 z M 154,63 l 7,0 0,7 -7,0 z M 161,63 l 7,0 0,7 -7,0 z M 168,63 l 7,0 0,7 -7,0 z M 196,63 l 7,0 0,7 -7,0 z M 0,70 l 7,0 0,7 -7,0 z M 7,70 l 7,0 0,7 -7,0 z M 28,70 l 7,0 0,7 -7,0 z M 35,70 l 7,0 0,7 -7,0 z M 42,70 l 7,0 0,7 -7,0 z M 49,70 l 7,0 0,7 -7,0 z M 56,70 l 7,0 0,7 -7,0 z M 70,70 l 7,0 0,7 -7,0 z M 91,70 l 7,0 0,7 -7,0 z M 98,70 l 7,0 0,7 -7,0 z M 105,70 l 7,0 0,7 -7,0 z M 112,70 l 7,0 0,7 -7,0 z M 126,70 l 7,0 0,7 -7,0 z M 168,70 l 7,0 0,7 -7,0 z M 0,77 l 7,0 0,7 -7,0 z M 7,77 l 7,0 0,7 -7,0 z M 14,77 l 7,0 0,7 -7,0 z M 21,77 l 7,0 0,7 -7,0 z M 35,77 l 7,0 0,7 -7,0 z M 84,77 l 7,0 0,7 -7,0 z M 98,77 l 7,0 0,7 -7,0 z M 105,77 l 7,0 0,7 -7,0 z M 112,77 l 7,0 0,7 -7,0 z M 140,77 l 7,0 0,7 -7,0 z M 175,77 l 7,0 0,7 -7,0 z M 189,77 l 7,0 0,7 -7,0 z M 7,84 l 7,0 0,7 -7,0 z M 21,84 l 7,0 0,7 -7,0 z M 28,84 l 7,0 0,7 -7,0 z M 42,84 l 7,0 0,7 -7,0 z M 49,84 l 7,0 0,7 -7,0 z M 63,84 l 7,0 0,7 -7,0 z M 70,84 l 7,0 0,7 -7,0 z M 84,84 l 7,0 0,7 -7,0 z M 98,84 l 7,0 0,7 -7,0 z M 105,84 l 7,0 0,7 -7,0 z M 119,84 l 7,0 0,7 -7,0 z M 133,84 l 7,0 0,7 -7,0 z M 175,84 l 7,0 0,7 -7,0 z M 182,84 l 7,0 0,7 -7,0 z M 0,91 l 7,0 0,7 -7,0 z M 7,91 l 7,0 0,7 -7,0 z M 63,91 l 7,0 0,7 -7,0 z M 98,91 l 7,0 0,7 -7,0 z M 105,91 l 7,0 0,7 -7,0 z M 112,91 l 7,0 0,7 -7,0 z M 119,91 l 7,0 0,7 -7,0 z M 126,91 l 7,0 0,7 -7,0 z M 133,91 l 7,0 0,7 -7,0 z M 140,91 l 7,0 0,7 -7,0 z M 147,91 l 7,0 0,7 -7,0 z M 154,91 l 7,0 0,7 -7,0 z M 161,91 l 7,0 0,7 -7,0 z M 168,91 l 7,0 0,7 -7,0 z M 196,91 l 7,0 0,7 -7,0 z M 28,98 l 7,0 0,7 -7,0 z M 42,98 l 7,0 0,7 -7,0 z M 70,98 l 7,0 0,7 -7,0 z M 77,98 l 7,0 0,7 -7,0 z M 84,98 l 7,0 0,7 -7,0 z M 98,98 l 7,0 0,7 -7,0 z M 105,98 l 7,0 0,7 -7,0 z M 140,98 l 7,0 0,7 -7,0 z M 147,98 l 7,0 0,7 -7,0 z M 168,98 l 7,0 0,7 -7,0 z M 175,98 l 7,0 0,7 -7,0 z M 182,98 l 7,0 0,7 -7,0 z M 7,105 l 7,0 0,7 -7,0 z M 14,105 l 7,0 0,7 -7,0 z M 21,105 l 7,0 0,7 -7,0 z M 35,105 l 7,0 0,7 -7,0 z M 56,105 l 7,0 0,7 -7,0 z M 70,105 l 7,0 0,7 -7,0 z M 77,105 l 7,0 0,7 -7,0 z M 105,105 l 7,0 0,7 -7,0 z M 112,105 l 7,0 0,7 -7,0 z M 126,105 l 7,0 0,7 -7,0 z M 133,105 l 7,0 0,7 -7,0 z M 140,105 l 7,0 0,7 -7,0 z M 147,105 l 7,0 0,7 -7,0 z M 154,105 l 7,0 0,7 -7,0 z M 161,105 l 7,0 0,7 -7,0 z M 168,105 l 7,0 0,7 -7,0 z M 189,105 l 7,0 0,7 -7,0 z M 42,112 l 7,0 0,7 -7,0 z M 49,112 l 7,0 0,7 -7,0 z M 63,112 l 7,0 0,7 -7,0 z M 70,112 l 7,0 0,7 -7,0 z M 77,112 l 7,0 0,7 -7,0 z M 91,112 l 7,0 0,7 -7,0 z M 98,112 l 7,0 0,7 -7,0 z M 105,112 l 7,0 0,7 -7,0 z M 112,112 l 7,0 0,7 -7,0 z M 119,112 l 7,0 0,7 -7,0 z M 133,112 l 7,0 0,7 -7,0 z M 147,112 l 7,0 0,7 -7,0 z M 161,112 l 7,0 0,7 -7,0 z M 175,112 l 7,0 0,7 -7,0 z M 182,112 l 7,0 0,7 -7,0 z M 0,119 l 7,0 0,7 -7,0 z M 7,119 l 7,0 0,7 -7,0 z M 35,119 l 7,0 0,7 -7,0 z M 49,119 l 7,0 0,7 -7,0 z M 56,119 l 7,0 0,7 -7,0 z M 84,119 l 7,0 0,7 -7,0 z M 91,119 l 7,0 0,7 -7,0 z M 112,119 l 7,0 0,7 -7,0 z M 119,119 l 7,0 0,7 -7,0 z M 126,119 l 7,0 0,7 -7,0 z M 133,119 l 7,0 0,7 -7,0 z M 147,119 l 7,0 0,7 -7,0 z M 154,119 l 7,0 0,7 -7,0 z M 161,119 l 7,0 0,7 -7,0 z M 168,119 l 7,0 0,7 -7,0 z M 182,119 l 7,0 0,7 -7,0 z M 196,119 l 7,0 0,7 -7,0 z M 0,126 l 7,0 0,7 -7,0 z M 14,126 l 7,0 0,7 -7,0 z M 21,126 l 7,0 0,7 -7,0 z M 28,126 l 7,0 0,7 -7,0 z M 42,126 l 7,0 0,7 -7,0 z M 70,126 l 7,0 0,7 -7,0 z M 91,126 l 7,0 0,7 -7,0 z M 98,126 l 7,0 0,7 -7,0 z M 105,126 l 7,0 0,7 -7,0 z M 112,126 l 7,0 0,7 -7,0 z M 126,126 l 7,0 0,7 -7,0 z M 140,126 l 7,0 0,7 -7,0 z M 154,126 l 7,0 0,7 -7,0 z M 161,126 l 7,0 0,7 -7,0 z M 168,126 l 7,0 0,7 -7,0 z M 182,126 l 7,0 0,7 -7,0 z M 0,133 l 7,0 0,7 -7,0 z M 28,133 l 7,0 0,7 -7,0 z M 49,133 l 7,0 0,7 -7,0 z M 56,133 l 7,0 0,7 -7,0 z M 63,133 l 7,0 0,7 -7,0 z M 70,133 l 7,0 0,7 -7,0 z M 84,133 l 7,0 0,7 -7,0 z M 98,133 l 7,0 0,7 -7,0 z M 105,133 l 7,0 0,7 -7,0 z M 112,133 l 7,0 0,7 -7,0 z M 140,133 l 7,0 0,7 -7,0 z M 147,133 l 7,0 0,7 -7,0 z M 154,133 l 7,0 0,7 -7,0 z M 189,133 l 7,0 0,7 -7,0 z M 0,140 l 7,0 0,7 -7,0 z M 21,140 l 7,0 0,7 -7,0 z M 28,140 l 7,0 0,7 -7,0 z M 35,140 l 7,0 0,7 -7,0 z M 42,140 l 7,0 0,7 -7,0 z M 49,140 l 7,0 0,7 -7,0 z M 56,140 l 7,0 0,7 -7,0 z M 84,140 l 7,0 0,7 -7,0 z M 91,140 l 7,0 0,7 -7,0 z M 98,140 l 7,0 0,7 -7,0 z M 105,140 l 7,0 0,7 -7,0 z M 119,140 l 7,0 0,7 -7,0 z M 133,140 l 7,0 0,7 -7,0 z M 140,140 l 7,0 0,7 -7,0 z M 147,140 l 7,0 0,7 -7,0 z M 154,140 l 7,0 0,7 -7,0 z M 161,140 l 7,0 0,7 -7,0 z M 168,140 l 7,0 0,7 -7,0 z M 182,140 l 7,0 0,7 -7,0 z M 189,140 l 7,0 0,7 -7,0 z M 196,140 l 7,0 0,7 -7,0 z M 56,147 l 7,0 0,7 -7,0 z M 63,147 l 7,0 0,7 -7,0 z M 91,147 l 7,0 0,7 -7,0 z M 112,147 l 7,0 0,7 -7,0 z M 126,147 l 7,0 0,7 -7,0 z M 140,147 l 7,0 0,7 -7,0 z M 168,147 l 7,0 0,7 -7,0 z M 175,147 l 7,0 0,7 -7,0 z M 182,147 l 7,0 0,7 -7,0 z M 189,147 l 7,0 0,7 -7,0 z M 196,147 l 7,0 0,7 -7,0 z M 0,154 l 7,0 0,7 -7,0 z M 7,154 l 7,0 0,7 -7,0 z M 14,154 l 7,0 0,7 -7,0 z M 21,154 l 7,0 0,7 -7,0 z M 28,154 l 7,0 0,7 -7,0 z M 35,154 l 7,0 0,7 -7,0 z M 42,154 l 7,0 0,7 -7,0 z M 56,154 l 7,0 0,7 -7,0 z M 63,154 l 7,0 0,7 -7,0 z M 77,154 l 7,0 0,7 -7,0 z M 84,154 l 7,0 0,7 -7,0 z M 91,154 l 7,0 0,7 -7,0 z M 98,154 l 7,0 0,7 -7,0 z M 105,154 l 7,0 0,7 -7,0 z M 126,154 l 7,0 0,7 -7,0 z M 133,154 l 7,0 0,7 -7,0 z M 140,154 l 7,0 0,7 -7,0 z M 154,154 l 7,0 0,7 -7,0 z M 168,154 l 7,0 0,7 -7,0 z M 175,154 l 7,0 0,7 -7,0 z M 182,154 l 7,0 0,7 -7,0 z M 0,161 l 7,0 0,7 -7,0 z M 42,161 l 7,0 0,7 -7,0 z M 63,161 l 7,0 0,7 -7,0 z M 70,161 l 7,0 0,7 -7,0 z M 77,161 l 7,0 0,7 -7,0 z M 98,161 l 7,0 0,7 -7,0 z M 133,161 l 7,0 0,7 -7,0 z M 140,161 l 7,0 0,7 -7,0 z M 168,161 l 7,0 0,7 -7,0 z M 189,161 l 7,0 0,7 -7,0 z M 0,168 l 7,0 0,7 -7,0 z M 14,168 l 7,0 0,7 -7,0 z M 21,168 l 7,0 0,7 -7,0 z M 28,168 l 7,0 0,7 -7,0 z M 42,168 l 7,0 0,7 -7,0 z M 56,168 l 7,0 0,7 -7,0 z M 70,168 l 7,0 0,7 -7,0 z M 77,168 l 7,0 0,7 -7,0 z M 84,168 l 7,0 0,7 -7,0 z M 91,168 l 7,0 0,7 -7,0 z M 98,168 l 7,0 0,7 -7,0 z M 105,168 l 7,0 0,7 -7,0 z M 112,168 l 7,0 0,7 -7,0 z M 119,168 l 7,0 0,7 -7,0 z M 140,168 l 7,0 0,7 -7,0 z M 147,168 l 7,0 0,7 -7,0 z M 154,168 l 7,0 0,7 -7,0 z M 161,168 l 7,0 0,7 -7,0 z M 168,168 l 7,0 0,7 -7,0 z M 182,168 l 7,0 0,7 -7,0 z M 196,168 l 7,0 0,7 -7,0 z M 0,175 l 7,0 0,7 -7,0 z M 14,175 l 7,0 0,7 -7,0 z M 21,175 l 7,0 0,7 -7,0 z M 28,175 l 7,0 0,7 -7,0 z M 42,175 l 7,0 0,7 -7,0 z M 56,175 l 7,0 0,7 -7,0 z M 84,175 l 7,0 0,7 -7,0 z M 91,175 l 7,0 0,7 -7,0 z M 105,175 l 7,0 0,7 -7,0 z M 112,175 l 7,0 0,7 -7,0 z M 119,175 l 7,0 0,7 -7,0 z M 126,175 l 7,0 0,7 -7,0 z M 133,175 l 7,0 0,7 -7,0 z M 140,175 l 7,0 0,7 -7,0 z M 175,175 l 7,0 0,7 -7,0 z M 182,175 l 7,0 0,7 -7,0 z M 189,175 l 7,0 0,7 -7,0 z M 196,175 l 7,0 0,7 -7,0 z M 0,182 l 7,0 0,7 -7,0 z M 14,182 l 7,0 0,7 -7,0 z M 21,182 l 7,0 0,7 -7,0 z M 28,182 l 7,0 0,7 -7,0 z M 42,182 l 7,0 0,7 -7,0 z M 56,182 l 7,0 0,7 -7,0 z M 70,182 l 7,0 0,7 -7,0 z M 98,182 l 7,0 0,7 -7,0 z M 105,182 l 7,0 0,7 -7,0 z M 112,182 l 7,0 0,7 -7,0 z M 119,182 l 7,0 0,7 -7,0 z M 133,182 l 7,0 0,7 -7,0 z M 140,182 l 7,0 0,7 -7,0 z M 147,182 l 7,0 0,7 -7,0 z M 154,182 l 7,0 0,7 -7,0 z M 161,182 l 7,0 0,7 -7,0 z M 168,182 l 7,0 0,7 -7,0 z M 175,182 l 7,0 0,7 -7,0 z M 182,182 l 7,0 0,7 -7,0 z M 189,182 l 7,0 0,7 -7,0 z M 0,189 l 7,0 0,7 -7,0 z M 42,189 l 7,0 0,7 -7,0 z M 56,189 l 7,0 0,7 -7,0 z M 63,189 l 7,0 0,7 -7,0 z M 77,189 l 7,0 0,7 -7,0 z M 84,189 l 7,0 0,7 -7,0 z M 112,189 l 7,0 0,7 -7,0 z M 126,189 l 7,0 0,7 -7,0 z M 140,189 l 7,0 0,7 -7,0 z M 147,189 l 7,0 0,7 -7,0 z M 161,189 l 7,0 0,7 -7,0 z M 175,189 l 7,0 0,7 -7,0 z M 189,189 l 7,0 0,7 -7,0 z M 0,196 l 7,0 0,7 -7,0 z M 7,196 l 7,0 0,7 -7,0 z M 14,196 l 7,0 0,7 -7,0 z M 21,196 l 7,0 0,7 -7,0 z M 28,196 l 7,0 0,7 -7,0 z M 35,196 l 7,0 0,7 -7,0 z M 42,196 l 7,0 0,7 -7,0 z M 56,196 l 7,0 0,7 -7,0 z M 70,196 l 7,0 0,7 -7,0 z M 91,196 l 7,0 0,7 -7,0 z M 98,196 l 7,0 0,7 -7,0 z M 119,196 l 7,0 0,7 -7,0 z M 126,196 l 7,0 0,7 -7,0 z M 133,196 l 7,0 0,7 -7,0 z M 154,196 l 7,0 0,7 -7,0 z M 161,196 l 7,0 0,7 -7,0 z M 168,196 l 7,0 0,7 -7,0 z M 182,196 l 7,0 0,7 -7,0 z " />
	</g>
</svg>
